<svg viewBox="0 0 1024 1024" version="1.1"
  xmlns="http://www.w3.org/2000/svg" width="200" height="200">
  <path
    d="M457.52092445 892.11335111l108.25272888 0c29.89624889 0 54.12181333-24.23011555 54.12181334-54.12181333L619.89546667 386.94684445c0-29.89624889-24.22556445-54.12864-54.12181334-54.12864l-108.25272888 0c-29.89169778 0-54.12181333 24.23239111-54.12181334 54.12864l0 451.04469333C403.39911111 867.88323555 427.62922667 892.11335111 457.52092445 892.11335111L457.52092445 892.11335111zM764.23395555 892.11335111l108.2527289 0c29.89169778 0 54.12181333-24.23011555 54.12181333-54.12181333L926.60849778 134.35562667c0-29.89169778-24.23011555-54.12181333-54.12181333-54.12181334l-108.2527289 0c-29.89624889 0-54.12864 24.23011555-54.12864 54.12181334l0 703.63591111C710.10531555 867.88323555 734.33770667 892.11335111 764.23395555 892.11335111L764.23395555 892.11335111zM150.81472 892.11335111l108.24590222 0c29.89624889 0 54.12864-24.23011555 54.12864-54.12181333l0-198.46030223c0-29.89624889-24.23239111-54.12864-54.12864-54.12864L150.81472 585.40259555c-29.89624889 0-54.12864 24.23239111-54.12864 54.12864l0 198.46030223C96.68380445 867.88323555 120.91619555 892.11335111 150.81472 892.11335111L150.81472 892.11335111zM988.14407111 933.04149333L45.17660445 933.04149333c-16.74581333 0-30.31495111 13.58051555-30.31495112 30.31495112l0 12.12643555c0 16.74581333 13.56913778 30.31495111 30.31495112 30.31495111l942.96974222 0c16.74581333 0 30.31495111-13.56913778 30.31495111-30.31495111l0-12.12643555C1018.45902222 946.62200889 1004.88988445 933.04149333 988.14407111 933.04149333L988.14407111 933.04149333z"
    fill="#000000"></path>
</svg>